<?xml version="1.0" encoding="UTF-8"?><svg id="Layer_1" xmlns="http://www.w3.org/2000/svg" width="379.9" height="279.87" viewBox="0 0 379.9 279.87"><path d="M250.1,13.09c-16,11.04-28.91,26.19-38.53,43-5.63.74-11.3,1.62-16.62,3.68-12.99,4.69-24.41,14.65-29.22,27.78-4.4,11.52-3.61,24.6,1.39,35.8-1.25-.37-2.49-.73-3.73-1.08-.28.15-.82.44-1.09.59l-1.44,3.36c-6.69-5.46-14.13-9.95-22.01-13.48,18.31-25.14,36.47-50.4,54.75-75.56C129.07,34.11,64.53,31.34,0,28.31c9.21,24.75,18.15,49.6,27.33,74.35,19.4-2.66,38.7-6.04,58.08-8.82-14.71,22.09-29.41,44.19-44.11,66.3,14.97-1.41,29.95-2.8,44.98-3.39,8.07-.6,16.59-1.11,24.19,2.25,9.09,3.8,15.75,12.26,18.24,21.69,2.64,9.06,2.19,19.58-3.78,27.27-10.31,13.98-31.51,17.27-46.13,8.32-7.59-4.22-12.87-11.86-14.65-20.31-20,.06-40,0-60,.04,1.21,19.67,9.23,38.87,22.8,53.21,16.34,17.84,39.81,28.6,63.85,30.32,20.16,1.65,40.85-3,58.28-13.3,14.46-8.5,26.62-20.96,34.46-35.82,12.83,22.09,34.45,38.92,59.11,45.68,16.16,4.52,33.43,4.96,49.77,1.1,35.34-7.8,64.99-36.53,73.76-71.66,5.77-22.3,3.66-46.63-6.27-67.44-7.02-14.84-17.78-27.91-31.03-37.6,15.37-4.38,30.9-8.29,45.98-13.6,1.63-22.65,3.8-45.28,5.04-67.95-10.52,1.99-20.33,6.49-30.13,10.63-26.76,12.07-52.84,26.14-76.15,44.08-2.95,1.77-6.24,2.86-9.29,4.41-7.55-8.72-17.53-15.29-28.58-18.62,19.32-10.99,35.4-27.99,44.43-48.37,1.28-3.49,3.24-7.31,2.01-11.08-11.79.66-22.46,6.71-32.09,13.09Z" style="fill:#fff;"/><path d="M185.08,75.23c1.55-1.91,6.04-1.9,5.46,1.4.29,3.48-3.46,5.12-6.41,4.5-.16-1.97-.83-4.44.95-5.9Z" style="fill:#fff;"/><path d="M226.05,101.27c-2.21-3.05,1-7.33,4.52-6.58,2.51-.37,3.56,2.1,4.65,3.86-.71,1.52-1.2,3.23-2.5,4.38-2.22,1.09-5.53.85-6.67-1.66Z" style="fill:#fff;"/><path d="M293.84,160.64c14.69-14.64,29.41-29.26,44.07-43.95,11.21,11.63,19.03,26.42,22.8,42.1,5.1,21.2,2.49,44.19-7.42,63.63-14.21,28.74-44.19,48.92-76.21,50.99-25.9,2.35-52.4-7.12-71.38-24.8,14.67-14.71,29.41-29.35,44.09-44.04,8.12,6.29,19.15,8.71,29.03,5.61,10.73-3.17,19.33-12.54,21.42-23.55,2.08-9.08-.75-18.74-6.4-25.99Z" style="fill:#fff;"/><path d="M266.2,155.7c6.45-1.04,13.22.87,18.44,4.73,7.39,5.41,11.55,15.16,9.78,24.22-1.43,9-8.28,16.83-16.95,19.59-9.66,3.26-21.08-.13-27.35-8.2-6.34-7.7-7.2-19.35-2.17-27.94,3.82-6.58,10.67-11.37,18.25-12.4Z" style="fill:#fff;"/><path d="M250.1,13.09c9.63-6.38,20.3-12.43,32.09-13.09,1.23,3.77-.73,7.59-2.01,11.08-9.03,20.38-25.11,37.38-44.43,48.37,11.05,3.33,21.03,9.9,28.58,18.62,3.05-1.55,6.34-2.64,9.29-4.41,23.31-17.94,49.39-32.01,76.15-44.08,9.8-4.14,19.61-8.64,30.13-10.63-1.24,22.67-3.41,45.3-5.04,67.95-15.08,5.31-30.61,9.22-45.98,13.6,13.25,9.69,24.01,22.76,31.03,37.6,9.93,20.81,12.04,45.14,6.27,67.44-8.77,35.13-38.42,63.86-73.76,71.66-16.34,3.86-33.61,3.42-49.77-1.1-24.66-6.76-46.28-23.59-59.11-45.68-7.84,14.86-20,27.32-34.46,35.82-17.43,10.3-38.12,14.95-58.28,13.3-24.04-1.72-47.51-12.48-63.85-30.32-13.57-14.34-21.59-33.54-22.8-53.21,20-.05,40,.02,60-.04,1.78,8.45,7.06,16.09,14.65,20.31,14.62,8.95,35.82,5.66,46.13-8.32,5.97-7.69,6.42-18.21,3.78-27.27-2.49-9.43-9.15-17.89-18.24-21.69-7.6-3.36-16.12-2.85-24.19-2.25-15.03.59-30.01,1.98-44.98,3.39,14.7-22.11,29.4-44.21,44.11-66.3-19.38,2.78-38.68,6.16-58.08,8.82C18.15,77.91,9.21,53.06,0,28.31c64.53,3.03,129.07,5.8,193.6,8.87-18.28,25.16-36.44,50.42-54.75,75.56,7.88,3.53,15.32,8.02,22.01,13.48l1.44-3.36c.27-.15.81-.44,1.09-.59,1.24.35,2.48.71,3.73,1.08-5-11.2-5.79-24.28-1.39-35.8,4.81-13.13,16.23-23.09,29.22-27.78,5.32-2.06,10.99-2.94,16.62-3.68,9.62-16.81,22.53-31.96,38.53-43ZM334.68,39.74c-18.14,9.19-35.9,19.24-52.5,31.01,18.67-4.88,38.55-6.65,57.43-1.78,4.06,1.17,8.37,2.24,11.72,4.96.63,1.81-.79,3.35-1.95,4.54-3.81,3.66-8.54,6.18-13.27,8.44-18.56,8.39-39.18,11.15-59.4,11.18,9.99,6.98,19.94,14.02,30.04,20.85-4.77,6.35-10.18,12.18-14.98,18.51,3.86,1.76,7.68,3.64,11.62,5.25,8.11-8.1,16.16-16.28,24.33-24.33-5.61-5.25-12.3-9.19-17.79-14.56,20.74-6.26,41.73-11.75,62.24-18.74,1.8-21.08,3.75-42.14,5.21-63.25-14.79,4.54-28.86,11.09-42.7,17.92ZM238.67,25.63c-9.95,8.55-17.76,19.34-24.64,30.45,6.31-.24,12.48,1.09,18.66,2.14,13.42-6.62,24.61-17.15,33.84-28.81-7.9-5.83-18.7-6.34-27.86-3.78ZM8.93,34.88c7.51,20.38,14.9,40.81,22.45,61.17,22.24-3.46,44.47-6.96,66.72-10.29-14.89,22.39-29.82,44.77-44.67,67.19,13.04-1.16,26.1-2.09,39.18-2.58,7.6-.34,15.44.48,22.29,4.03,12.5,6.11,20.27,19.58,21.23,33.24.96,8.46-1.22,17.27-6.43,24.06-10.01,13.54-28.97,18.74-44.82,13.81-11.47-3.32-21.41-12.05-25.33-23.44-16.23-.12-32.46-.05-48.7-.04,3.37,25.85,20.61,48.76,43.5,60.78,17.06,9.16,37.03,12.71,56.21,10.23,21.19-2.57,41.5-12.74,55.82-28.62,7.49-8.03,12.57-17.84,16.84-27.85,4.63,10.09,10.62,19.57,18.21,27.71,6.33-6.6,12.97-12.88,19.29-19.48-6.8-9.7-11.83-20.52-16.05-31.56-7.58,3.16-16.07,3.75-23.22,7.96-.9-.93-1.78-1.85-2.66-2.77-1.43-.16-2.85-.32-4.26-.49-.1-.71-.3-2.14-.4-2.86-1.1-.55-2.23-1.06-3.25-1.73-.36-1.35-.5-2.74-.69-4.11-2.35-2.77-.78-6.33.04-9.37,6.52-4.17,10.79-10.94,17.06-15.49-9.53-4.28-18.19-10.57-24.95-18.54-2.26-2.84-5.49-4.56-8.39-6.64.69-1.02,1.38-2.03,2.08-3.04-.5-1.18-.98-2.36-1.45-3.54.74-.65,1.49-1.29,2.24-1.93-8.24-6.48-17.47-11.68-27.36-15.16,17.35-24.43,35.3-48.44,52.51-72.97-57.69-2.36-115.35-5.32-173.04-7.68ZM206.55,59.24c-15.43,2.36-30.26,11.67-37.06,26.04-3.6,8.04-5.33,17.08-3.69,25.82,2.12,11.32,9.23,21.23,18.3,28.11,3.43,2.8,7.51,4.64,10.89,7.49-3.97-.48-7.3-2.82-10.6-4.89-6.5-4.17-12.02-9.82-15.94-16.47-1.7-.15-3.4-.37-5.08-.59-.14.75-.41,2.25-.55,3-1.23.11-2.45.23-3.67.36.27.9.79,2.71,1.05,3.62-1.2.46-2.39.92-3.58,1.39.68,1.1,1.37,2.2,2.06,3.31-.76.75-1.51,1.51-2.26,2.26,2.38,1.21,4.92,2.36,6.55,4.58,7.09,8.42,16.08,15.43,26.41,19.38,6.35-4.3,12.38-10.01,20.09-11.54-12.75,8.06-25.07,17.18-34.91,28.73-.96.25-1.9.5-2.85.76.09.82.28,2.48.37,3.3-.68.81-1.34,1.63-2,2.46.97.69,1.95,1.39,2.93,2.09l-.92,3.6c1.27.46,2.54.92,3.83,1.37.05.77.16,2.32.21,3.09,1.32-.08,2.65-.15,3.98-.22.51.84,1.02,1.68,1.53,2.53,2.26-1.09,4.56-2.15,7.02-2.73,8.75-2.21,17.33-5.18,25.56-8.91,3.15-1.41,6.04-3.51,9.51-4.1-4.72,4.63-11.09,6.88-17.06,9.41,3.94,9.93,8.59,19.63,14.5,28.55.41.98,1.81,2.13,2.68.91,7.31-7.11,14.38-14.46,21.71-21.53-4.97-6.79-8.04-15.32-6.74-23.79,1.2-10.35,8.06-19.86,17.56-24.18,2.71-1.27,5.82-1.88,8.03-4.05,3.07-2.76,6.45-5.16,10.17-6.95-1.87-2.32-4.18-4.62-4.55-7.72-.8-5.49,1.83-10.58,2.71-15.88,1.08-6.58.71-13.36-.83-19.83-3.88-.51-8.41.54-11.74-1.91,15.36-.07,31.03.79,46.08-2.71,6.69-6.59,10.24-15.9,11.8-25.04-21.13-.54-42.06,5.18-60.73,14.89-.02-.38-.07-1.14-.1-1.51,1.56-.81,3.12-1.62,4.68-2.44-13.18-15.74-35.24-23.08-55.35-20.06ZM275.04,99.86c1.47,7.93,1.3,16.18-1.06,23.92-1.14,4.28-3.08,9.46.02,13.39,5.5,6.43,13.54,9.76,20.66,14.03,2.25-2.27,4.52-4.52,6.84-6.73-4.36-2.01-8.72-3.98-13.06-6.01,4.23-6.96,10.26-12.61,15.22-19.04-9.76-6.2-19.18-12.9-28.62-19.56ZM313.8,104.57c5.23,4.01,10.55,7.9,15.79,11.9,1.34-1.34,2.68-2.69,4.04-4.03-3.78-3.6-7.93-6.78-12.21-9.74-2.55.61-5.09,1.25-7.62,1.87ZM293.84,160.64c5.65,7.25,8.48,16.91,6.4,25.99-2.09,11.01-10.69,20.38-21.42,23.55-9.88,3.1-20.91.68-29.03-5.61-14.68,14.69-29.42,29.33-44.09,44.04,18.98,17.68,45.48,27.15,71.38,24.8,32.02-2.07,62-22.25,76.21-50.99,9.91-19.44,12.52-42.43,7.42-63.63-3.77-15.68-11.59-30.47-22.8-42.1-14.66,14.69-29.38,29.31-44.07,43.95ZM286.31,154.18c1.1.77,2.22,1.55,3.34,2.33.9-1.4,3.44-2.48,2.53-4.42-2.26-1.08-4.09,1.04-5.87,2.09ZM266.2,155.7c-7.58,1.03-14.43,5.82-18.25,12.4-5.03,8.59-4.17,20.24,2.17,27.94,6.27,8.07,17.69,11.46,27.35,8.2,8.67-2.76,15.52-10.59,16.95-19.59,1.77-9.06-2.39-18.81-9.78-24.22-5.22-3.86-11.99-5.77-18.44-4.73Z" style="fill:#11111a;"/><path d="M186.3,72.55c2.39-.69,5.28.63,5.92,3.13,1.66,6.38-3.51,12.85-9.57,14.32-3.35.94-6.53-1.94-6.41-5.28.12-5.66,4.58-10.89,10.06-12.17ZM185.08,75.23c-1.78,1.46-1.11,3.93-.95,5.9,2.95.62,6.7-1.02,6.41-4.5.58-3.3-3.91-3.31-5.46-1.4Z" style="fill:#11111a;"/><path d="M226.06,93.23c7.27-2.15,14.56,5.34,12.54,12.55-.92,6.47-8.3,10.57-14.32,8.06-5.43-2.16-8.07-8.93-5.74-14.25,1.4-3.09,4.23-5.52,7.52-6.36ZM226.05,101.27c1.14,2.51,4.45,2.75,6.67,1.66,1.3-1.15,1.79-2.86,2.5-4.38-1.09-1.76-2.14-4.23-4.65-3.86-3.52-.75-6.73,3.53-4.52,6.58Z" style="fill:#11111a;"/><path d="M190.93,94.7c1,.74,2,1.5,2.98,2.27-.78.02-2.34.05-3.12.07.03-.59.11-1.76.14-2.34Z" style="fill:#11111a;"/><path d="M179.44,96.23c.95,1.57,1.55,3.42,2.93,4.71,2.47.26,5.04-.26,7.48.41,5.15,2.15,7.93,7.35,12.3,10.52,2.5,1.79,5.6.86,8.39.59-1.85,1.84-4.45,2.21-6.92,2.54-3.46,4.95-7.71,9.74-13.48,11.97-2.16.74-5.21.96-6.46-1.37-3.47-5.98-3.63-13.24-3.34-19.97.38-3.2-1.4-6.18-.9-9.4ZM182.58,103.07c-.26,3.04-.41,6.1-.5,9.16,6.35-2.15,12.95.64,17.41,5.25.58-1,1.21-1.97,1.74-3.01-3.13-3.29-6.21-6.67-9.6-9.72-2.43-2.4-5.99-1.62-9.05-1.68ZM182.15,114.3c.82,3.75.88,8.15,3.79,11.02,4.98,1.09,8.72-3.4,12.22-6.2-4.04-4.48-10.17-6.22-16.01-4.82Z" style="fill:#11111a;"/><path d="M334.68,39.74c13.84-6.83,27.91-13.38,42.7-17.92-1.46,21.11-3.41,42.17-5.21,63.25-20.51,6.99-41.5,12.48-62.24,18.74,5.49,5.37,12.18,9.31,17.79,14.56-8.17,8.05-16.22,16.23-24.33,24.33-3.94-1.61-7.76-3.49-11.62-5.25,4.8-6.33,10.21-12.16,14.98-18.51-10.1-6.83-20.05-13.87-30.04-20.85,20.22-.03,40.84-2.79,59.4-11.18,4.73-2.26,9.46-4.78,13.27-8.44,1.16-1.19,2.58-2.73,1.95-4.54-3.35-2.72-7.66-3.79-11.72-4.96-18.88-4.87-38.76-3.1-57.43,1.78,16.6-11.77,34.36-21.82,52.5-31.01Z" style="fill:#ffde00;"/><path d="M238.67,25.63c9.16-2.56,19.96-2.05,27.86,3.78-9.23,11.66-20.42,22.19-33.84,28.81-6.18-1.05-12.35-2.38-18.66-2.14,6.88-11.11,14.69-21.9,24.64-30.45Z" style="fill:#ffde00;"/><path d="M206.55,59.24c20.11-3.02,42.17,4.32,55.35,20.06-1.56.82-3.12,1.63-4.68,2.44.03.37.08,1.13.1,1.51,18.67-9.71,39.6-15.43,60.73-14.89-1.56,9.14-5.11,18.45-11.8,25.04-15.05,3.5-30.72,2.64-46.08,2.71,3.33,2.45,7.86,1.4,11.74,1.91,1.54,6.47,1.91,13.25.83,19.83-.88,5.3-3.51,10.39-2.71,15.88.37,3.1,2.68,5.4,4.55,7.72-3.72,1.79-7.1,4.19-10.17,6.95-2.21,2.17-5.32,2.78-8.03,4.05-9.5,4.32-16.36,13.83-17.56,24.18-1.3,8.47,1.77,17,6.74,23.79-7.33,7.07-14.4,14.42-21.71,21.53-.87,1.22-2.27.07-2.68-.91-5.91-8.92-10.56-18.62-14.5-28.55,5.97-2.53,12.34-4.78,17.06-9.41-3.47.59-6.36,2.69-9.51,4.1-8.23,3.73-16.81,6.7-25.56,8.91-2.46.58-4.76,1.64-7.02,2.73-.51-.85-1.02-1.69-1.53-2.53-1.33.07-2.66.14-3.98.22-.05-.77-.16-2.32-.21-3.09-1.29-.45-2.56-.91-3.83-1.37l.92-3.6c-.98-.7-1.96-1.4-2.93-2.09.66-.83,1.32-1.65,2-2.46-.09-.82-.28-2.48-.37-3.3.95-.26,1.89-.51,2.85-.76,9.84-11.55,22.16-20.67,34.91-28.73-7.71,1.53-13.74,7.24-20.09,11.54-10.33-3.95-19.32-10.96-26.41-19.38-1.63-2.22-4.17-3.37-6.55-4.58.75-.75,1.5-1.51,2.26-2.26-.69-1.11-1.38-2.21-2.06-3.31,1.19-.47,2.38-.93,3.58-1.39-.26-.91-.78-2.72-1.05-3.62,1.22-.13,2.44-.25,3.67-.36.14-.75.41-2.25.55-3,1.68.22,3.38.44,5.08.59,3.92,6.65,9.44,12.3,15.94,16.47,3.3,2.07,6.63,4.41,10.6,4.89-3.38-2.85-7.46-4.69-10.89-7.49-9.07-6.88-16.18-16.79-18.3-28.11,7.06-6.39,7.88-17.62,3.69-25.82,6.8-14.37,21.63-23.68,37.06-26.04ZM186.3,72.55c-5.48,1.28-9.94,6.51-10.06,12.17-.12,3.34,3.06,6.22,6.41,5.28,6.06-1.47,11.23-7.94,9.57-14.32-.64-2.5-3.53-3.82-5.92-3.13ZM226.06,93.23c-3.29.84-6.12,3.27-7.52,6.36-2.33,5.32.31,12.09,5.74,14.25,6.02,2.51,13.4-1.59,14.32-8.06,2.02-7.21-5.27-14.7-12.54-12.55ZM190.93,94.7c-.03.58-.11,1.75-.14,2.34.78-.02,2.34-.05,3.12-.07-.98-.77-1.98-1.53-2.98-2.27ZM179.44,96.23c-.5,3.22,1.28,6.2.9,9.4-.29,6.73-.13,13.99,3.34,19.97,1.25,2.33,4.3,2.11,6.46,1.37,5.77-2.23,10.02-7.02,13.48-11.97,2.47-.33,5.07-.7,6.92-2.54-2.79.27-5.89,1.2-8.39-.59-4.37-3.17-7.15-8.37-12.3-10.52-2.44-.67-5.01-.15-7.48-.41-1.38-1.29-1.98-3.14-2.93-4.71ZM227.87,118.94c-4.9,1.65-9.19,5.59-10.47,10.7-1.25,4.81,1.15,10.25,5.58,12.5,8.27,4.6,20-.05,23.01-8.97.87-3.43.8-7.5-1.6-10.32-3.81-4.88-10.92-5.84-16.52-3.91Z" style="fill:#ffde00;"/><path d="M286.31,154.18c1.78-1.05,3.61-3.17,5.87-2.09.91,1.94-1.63,3.02-2.53,4.42-1.12-.78-2.24-1.56-3.34-2.33Z" style="fill:#ffde00;"/><path d="M8.93,34.88c57.69,2.36,115.35,5.32,173.04,7.68-17.21,24.53-35.16,48.54-52.51,72.97,9.89,3.48,19.12,8.68,27.36,15.16-.75.64-1.5,1.28-2.24,1.93.47,1.18.95,2.36,1.45,3.54-.7,1.01-1.39,2.02-2.08,3.04,2.9,2.08,6.13,3.8,8.39,6.64,6.76,7.97,15.42,14.26,24.95,18.54-6.27,4.55-10.54,11.32-17.06,15.49-.82,3.04-2.39,6.6-.04,9.37.19,1.37.33,2.76.69,4.11,1.02.67,2.15,1.18,3.25,1.73.1.72.3,2.15.4,2.86,1.41.17,2.83.33,4.26.49.88.92,1.76,1.84,2.66,2.77,7.15-4.21,15.64-4.8,23.22-7.96,4.22,11.04,9.25,21.86,16.05,31.56-6.32,6.6-12.96,12.88-19.29,19.48-7.59-8.14-13.58-17.62-18.21-27.71-4.27,10.01-9.35,19.82-16.84,27.85-14.32,15.88-34.63,26.05-55.82,28.62-19.18,2.48-39.15-1.07-56.21-10.23-22.89-12.02-40.13-34.93-43.5-60.78,16.24-.01,32.47-.08,48.7.04,3.92,11.39,13.86,20.12,25.33,23.44,15.85,4.93,34.81-.27,44.82-13.81,5.21-6.79,7.39-15.6,6.43-24.06-.96-13.66-8.73-27.13-21.23-33.24-6.85-3.55-14.69-4.37-22.29-4.03-13.08.49-26.14,1.42-39.18,2.58,14.85-22.42,29.78-44.8,44.67-67.19-22.25,3.33-44.48,6.83-66.72,10.29-7.55-20.36-14.94-40.79-22.45-61.17Z" style="fill:#e50010;"/><path d="M165.8,111.1c-1.64-8.74.09-17.78,3.69-25.82,4.19,8.2,3.37,19.43-3.69,25.82Z" style="fill:#e50010;"/><path d="M275.04,99.86c9.44,6.66,18.86,13.36,28.62,19.56-4.96,6.43-10.99,12.08-15.22,19.04,4.34,2.03,8.7,4,13.06,6.01-2.32,2.21-4.59,4.46-6.84,6.73-7.12-4.27-15.16-7.6-20.66-14.03-3.1-3.93-1.16-9.11-.02-13.39,2.36-7.74,2.53-15.99,1.06-23.92Z" style="fill:#e50010;"/><path d="M182.58,103.07c3.06.06,6.62-.72,9.05,1.68,3.39,3.05,6.47,6.43,9.6,9.72-.53,1.04-1.16,2.01-1.74,3.01-4.46-4.61-11.06-7.4-17.41-5.25.09-3.06.24-6.12.5-9.16Z" style="fill:#e50010;"/><path d="M313.8,104.57c2.53-.62,5.07-1.26,7.62-1.87,4.28,2.96,8.43,6.14,12.21,9.74-1.36,1.34-2.7,2.69-4.04,4.03-5.24-4-10.56-7.89-15.79-11.9Z" style="fill:#e50010;"/><path d="M182.15,114.3c5.84-1.4,11.97.34,16.01,4.82-3.5,2.8-7.24,7.29-12.22,6.2-2.91-2.87-2.97-7.27-3.79-11.02Z" style="fill:#e50010;"/><path d="M227.87,118.94c5.6-1.93,12.71-.97,16.52,3.91,2.4,2.82,2.47,6.89,1.6,10.32-3.01,8.92-14.74,13.57-23.01,8.97-4.43-2.25-6.83-7.69-5.58-12.5,1.28-5.11,5.57-9.05,10.47-10.7Z" style="fill:#e50010;"/></svg>